<svg role="img" aria-label="Blue-I-Tech — Technology. Built for business." xmlns="http://www.w3.org/2000/svg" width="1073" height="248" viewBox="0 0 1073 248"><path fill="#fff" d="M49 36.1h2.1c2.3 0 2.3 0 2.6 1.2v5.5c0 2.2 0 2.2-1 2.8l-3.6.1h-2c-2.3 0-2.3 0-2.7-1v-5.9c0-3.4 1.6-2.7 4.6-2.7M35.3 48.4h2.4c2.6 0 2.6 0 3.3 1v7.4c0 2.6 0 2.6-1.2 3.2h-7c-2.6 0-2.6 0-3.2-1l-.1-4.7v-2.7c.1-4 2.1-3.2 5.8-3.2m36.5 10.3h28.7c17 0 34.6 4 45.2 18.5v.3h.3c5.3 8.7 9 21.4 5 31.4l-.3 1.2a25 25 0 0 1-5 9.8c-.8-.1-.8-.1-2.4-1.6l-2-1.6-2.3-2-1.5-1.2-2-1.7-2.7-2.1v-.3l-.6-.3-3.6-3-2-1.6-1.4-1.2-3.1-2.5v-.3l-.8-.3-1.4-1.3-1.7-1.4-3.5-3-1.5-1.1-2-1.8L109 90l-1.4-1.4-2.1-1.6-1.4-1.2-2-1.6-1.2-1-3.1-2.6v-.3L97 80l-1.6-1.4-1.2-1v-.2l-.7-.3-1.5-1.4-1.4-1v-.3l-.7-.3-1.5-1.3-2-1.7-2.3-1.9-1.5-1.2-1.9-1.6-1.6-1.3-2.8-2.4-2.1-1.6c-2.4-2.1-2.4-2.1-2.4-2.4m-45 5h1.8c2.5 0 2.5 0 2.7 1.6.1 6.6.1 6.6-.8 7.3-7 1.2-7 1.2-8.2-.7l-.1-3.3v-1.8c0-3.6 1.4-3.1 4.5-3.1m17 8.5c1.4 1.5 1.5 5 .2 6.6a10 10 0 0 1-5.9-.1c-3-6 1.5-6.7 5.8-6.5m27.4 12.3q1.6 1 3.1 2.4l1.2.8.8.8 2 1.6 1.2 1 3.1 2.6.5.4 1.8 1.4v.3l.6.2 1.9 1.7 1.3 1 1.4 1.2 2.6 2v.4l.8.3L95 104l1.2.8v.3l.7.3 1.5 1.4 2 1.6 2.3 2 2.4 1.9 1.2 1 1.3 1c2.2 1.8 2.2 1.8 2.2 2.1l.8.3 1.4 1.3 1.4 1v.4l.7.3 1.5 1.3 2 1.6 2.2 1.8 2.5 2 1.2 1.1 1.3 1 4.4 3.8 2.1 1.6 2.2 2c1.4 1 1.4 1 2.1.8l1.7-1.9 1-1.2 1-1.3c4.1-1.4 15.4 12.2 17.4 15.5a43 43 0 0 1-13 52.5l-1.9 1.2-1 .8a64 64 0 0 1-11.4 5.4l-1.6.6-2.7.8-2 .6a94 94 0 0 1-20.9 2.2H76.7c-5.1 0-5.1 0-5.6-.2v-34.4l-.1-14.7v-26.5c0-5.1 0-5.1.7-5.3l1 1 1.2 1 2.7 2.1 2 1.7 1.4 1.2 1.5 1.1 2 1.8 2.1 1.7 1.2 1 2 1.6c1 .8 1 .8 1 1l.7.4 2.2 1.9 2.1 1.6c1.5 1.2 1.5 1.2 1.5 1.5l.6.3 1.6 1.3 1.3 1v.4l.8.3 1.5 1.3 2 1.6 2.1 1.8 3.7 3v.3l.8.3 1.4 1.3 2.1 1.6 1.5 1.4 2 1.6 2 1.6c1-.1 1-.1 2.5-2l2-2.4 1.6-2.1 1.5-1.8 2.8-3.5.9-1c.3-2.1-3.2-3.8-4.6-5l-2.2-1.9-1.4-1c-1.3-1-1.3-1-1.3-1.4l-.6-.3c-3-2.3-3-2.3-3-2.6l-.7-.3-2-1.7-3.8-3-2.2-2-2-1.6-2-1.7-3.9-3v-.4l-.7-.3-1.5-1.3-2-1.6-2-1.7c-1.5-.7-4.1-.3-5.7-.3H73.6c-2-.1-2-.1-2.5-.4V86.4zM288 115q0 8-4 14-3.9 6.1-11.3 9.6-7.4 3.4-17.6 3.4h-42.9V42.4h41q10.2 0 17.6 3.3 7.3 3.3 11 9.1 3.9 5.9 3.9 13.3 0 8.7-4.7 14.5-4.6 5.9-12.3 8.3 8.4 1.6 13.8 8.4T288 115m-55.8-31.5h18.2q7.2 0 11-3.2 3.9-3.2 3.9-9.2t-3.9-9.3-11-3.3h-18.2Zm35.5 29.1q0-6.4-4.3-10-4.3-3.7-11.5-3.7h-19.7v26.8h20q7.4 0 11.4-3.4t4.1-9.7m56.2-76.2V142h-20V36.4ZM418.2 63v79h-20.1v-10q-3.9 5.1-10 8-6.3 3-13.6 3-9.2 0-16.4-4-7-3.9-11.2-11.5-4-7.6-4-18.2V63h20v43.5q0 9.4 4.7 14.5t12.8 5q8.3 0 13-5t4.7-14.5V63Zm92.6 45.5H453q.7 8.5 6 13.4 5.3 4.8 13 4.8 11.1 0 15.8-9.5h21.6q-3.5 11.4-13.2 18.7-9.7 7.4-23.8 7.4-11.4 0-20.5-5-9-5.2-14-14.4-5.2-9.3-5.2-21.4 0-12.3 5-21.6 5-9.2 14-14.2t20.7-5q11.3 0 20.2 4.8 9 4.9 13.8 13.8 5 9 5 20.5 0 4.2-.6 7.7M490.7 95q-.2-7.7-5.6-12.4-5.4-4.6-13.3-4.6-7.4 0-12.4 4.5T453 95Zm309-52.7v16.1H773V142h-20V58.5h-26.5v-16Zm87.4 66h-57.8q.7 8.6 6 13.5 5.3 4.8 13 4.8 11.1 0 15.8-9.5h21.6q-3.5 11.4-13.2 18.7-9.7 7.4-23.8 7.4-11.4 0-20.4-5-9.1-5.2-14.2-14.4-5-9.3-5-21.4 0-12.3 5-21.6 5-9.2 14-14.2t20.6-5q11.3 0 20.2 4.8 9 4.9 13.8 13.8 5 9 5 20.5 0 4.2-.6 7.7M867 95.2q-.2-7.7-5.6-12.4-5.4-4.6-13.2-4.6-7.5 0-12.5 4.5T829.5 95Zm69.2-33.4q14.7 0 24.3 7.3 9.6 7.4 12.9 20.6h-21.5q-1.7-5.1-5.8-8t-10-3q-8.6 0-13.6 6.3t-5 17.6q0 11.2 5 17.5 5 6.2 13.5 6.2 12.2 0 15.9-10.9h21.5q-3.3 12.9-13 20.4-9.7 7.6-24.2 7.6-11.4 0-20.3-5-8.8-5.2-13.8-14.4t-5-21.4q0-12.3 5-21.5t13.8-14.3 20.3-5m127.2 34V142h-20V98.3q0-9.4-4.7-14.4t-12.8-5.1q-8.3 0-13 5-4.8 5.1-4.8 14.5V142h-20V36.4h20v36.4q3.8-5.1 10.2-8 6.5-3 14.3-3 9 0 16 4 7 3.9 10.9 11.5t4 18.3"/><path fill="#4e92f5" d="M586.7 82.6v16.9h-60.5V82.6ZM629 42.4V142h-20V42.4Zm80.5 40.2v16.9H649V82.6Z"/><path fill="#a9bedc" d="M243.3 158.1v5h-9.8v31.8h-6V163h-10v-4.9Zm33.6 24.5h-22.4q.3 3.5 2.6 5.6t5.8 2.1q4.8 0 6.9-4h6.5q-1.4 4-4.8 6.5-3.5 2.6-8.6 2.6-4.2 0-7.5-1.9t-5.2-5.3q-2-3.4-2-7.9t2-8 5-5.2 7.7-1.8 7.3 1.8q3.3 1.8 5 5 1.9 3.3 1.9 7.5 0 1.7-.2 3m-6.1-4.9q0-3.3-2.4-5.3t-5.8-2q-3.1 0-5.4 2-2.2 2-2.6 5.3Zm25.4-12.4q5.3 0 8.8 2.5t4.7 7.2h-6.5q-.8-2.2-2.6-3.4-1.7-1.3-4.4-1.3-3.7 0-5.9 2.7-2.2 2.6-2.2 7.3t2.2 7.4 6 2.6q5.2 0 6.9-4.6h6.5q-1.3 4.5-4.8 7-3.5 2.7-8.7 2.7-4.1 0-7.4-1.9-3.2-1.9-5-5.3-1.9-3.4-1.9-7.9t1.9-8 5-5.2 7.4-1.8m47.2 12.4V195h-6v-16.3q0-4-2-6-1.9-2.1-5.3-2.1t-5.4 2q-2 2.2-2 6.1V195h-6v-39.2h6v13.4q1.6-1.8 4-2.8 2.3-1 5.1-1 3.3 0 6 1.4 2.6 1.4 4.1 4.2t1.5 6.8m35.4 0V195h-6v-16.3q0-4-2-6-2-2.1-5.3-2.1-3.4 0-5.4 2-2 2.2-2 6.1V195h-6v-29.2h6v3.4q1.5-1.8 3.8-2.8t4.9-1q3.4 0 6.1 1.4 2.8 1.4 4.3 4.2 1.6 2.8 1.6 6.8m6.6 2.6q0-4.4 2-7.9 2-3.4 5.3-5.3 3.4-1.8 7.6-1.8t7.6 1.8 5.3 5.3 2 7.9-2 7.9-5.5 5.3-7.6 1.9-7.5-1.9-5.3-5.3-1.9-7.9m23.6 0q0-3.2-1.2-5.4t-3.2-3.3-4.4-1.1-4.3 1.1-3.2 3.3-1.1 5.4q0 4.7 2.4 7.3t6 2.6q2.4 0 4.4-1.2 2-1 3.3-3.3t1.3-5.4m19.2-24.6V195h-6v-39.2Zm7 24.6q0-4.4 1.9-7.9 2-3.4 5.3-5.3 3.4-1.8 7.6-1.8t7.6 1.8 5.4 5.3 2 7.9-2.1 7.9q-2 3.4-5.5 5.3t-7.6 1.9-7.5-1.9-5.3-5.3-1.9-7.9m23.5 0q0-3.2-1.2-5.4t-3.2-3.3-4.4-1.1-4.3 1.1-3.2 3.3-1.1 5.4q0 4.7 2.4 7.3t6 2.6q2.4 0 4.4-1.2 2-1 3.3-3.3t1.3-5.4m35-10.3v-4.3h6.1v29.7q0 4-1.7 7.2-1.7 3.1-4.9 5-3.2 1.7-7.6 1.7-6 0-9.9-2.7t-4.4-7.6h6q.6 2.3 2.9 3.7t5.4 1.4q3.6 0 5.9-2.2 2.2-2.3 2.2-6.5v-4.9q-1.5 2.1-4.1 3.5t-6 1.4q-3.8 0-7-2-3.1-1.9-5-5.3-1.8-3.5-1.8-7.9t1.9-7.8 5-5.3 7-1.8q3.3 0 6 1.3 2.6 1.4 4 3.4m-8.8.5q-2.3 0-4.4 1.1-2 1.2-3.2 3.4t-1.3 5.2 1.3 5.3 3.3 3.5 4.3 1.2 4.3-1.2 3.3-3.4 1.2-5.3-1.2-5.2-3.3-3.4-4.3-1.2m50.1-4.8-17.9 43h-6l5.9-14.2-11.5-28.8h6.7l8.2 22.3 8.6-22.3Zm4.1 25.7q0-1.6 1.1-2.7t2.8-1.1 2.7 1q1 1.2 1 2.8 0 1.7-1 2.8-1.1 1.1-2.7 1.1t-2.8-1.1-1.1-2.8m56.7-6.4q0 2.8-1.5 5-1.4 2.3-4.2 3.6-2.7 1.3-6.4 1.3H569v-36.8h14q3.8 0 6.5 1.3 2.7 1.2 4 3.4 1.4 2.1 1.4 4.8 0 3.2-1.6 5.3t-4.6 3.1q3 .5 5 3.1 2.1 2.6 2.1 6M575 173.6h7.5q3 0 4.6-1.4 1.7-1.3 1.7-3.9t-1.7-3.9-4.6-1.4H575Zm14.8 10.8q0-2.7-1.9-4.3t-5-1.6H575V190h8.2q3 0 4.8-1.5t1.8-4.1m40-18.7V195h-6v-3.4q-1.5 1.8-3.8 2.8t-5 1q-3.4 0-6-1.4-2.8-1.4-4.4-4.2-1.5-2.8-1.5-6.8v-17.2h6V182q0 4 1.9 6 2 2.1 5.4 2.1 3.3 0 5.3-2 2-2.2 2-6.1v-16.3Zm8-7.7q0-1.6 1.2-2.8 1-1 2.7-1 1.6 0 2.7 1 1.2 1.2 1.2 2.8t-1.2 2.7-2.7 1.2-2.7-1.2-1.1-2.7m6.9 7.7V195h-6v-29.2Zm15-10V195h-6v-39.2Zm15.9 15v16.1q0 1.7.8 2.4.7.7 2.6.7h3.7v5H678q-4 0-6.2-1.9t-2.2-6.2v-16.1h-3.4v-5h3.4v-7.2h6.1v7.2h7.1v5Zm40.6 0h-5.4v24.2h-6.1v-24.2h-3.5v-5h3.5v-2q0-5 2.7-7.4 2.6-2.3 8.4-2.3v5q-2.8 0-4 1-1 1.1-1 3.7v2h5.4Zm4.3 9.6q0-4.4 2-7.9 2-3.4 5.3-5.3 3.4-1.8 7.6-1.8t7.6 1.8 5.4 5.3 2 7.9-2.1 7.9q-2 3.4-5.5 5.3t-7.6 1.9-7.5-1.9-5.3-5.3-1.9-7.9m23.6 0q0-3.2-1.2-5.4t-3.2-3.3-4.4-1.1-4.3 1.1-3.2 3.3-1.1 5.4q0 4.7 2.4 7.3t6 2.6q2.4 0 4.4-1.2 2-1 3.3-3.3t1.3-5.4m28-15v6.2h-1.6q-3.6 0-5.4 1.8t-1.8 6.3v15.3h-6v-29.2h6v4.3q1.3-2.3 3.5-3.5t5.2-1.2m37.4 0q3.9 0 7 1.8t5 5.3q1.7 3.4 1.7 7.8t-1.8 7.9-5 5.4q-3 1.9-6.9 1.9-3.4 0-6-1.3t-4.2-3.4v4.2h-6v-39.2h6v14.4q1.6-2.1 4.2-3.5 2.7-1.3 6-1.3m-1.3 5.2q-2.3 0-4.3 1.2t-3.3 3.4-1.3 5.2 1.3 5.3 3.3 3.4 4.3 1.2 4.3-1.2q2-1.2 3.3-3.5t1.3-5.3-1.3-5.2-3.3-3.4-4.3-1.1m48.4-4.8V195h-6v-3.4q-1.5 1.8-3.8 2.8t-4.9 1q-3.4 0-6.1-1.4-2.8-1.4-4.3-4.2-1.6-2.8-1.6-6.8v-17.2h6V182q0 4 2 6 2 2.1 5.3 2.1 3.4 0 5.4-2 2-2.2 2-6.1v-16.3ZM864 186h6.3q.1 1.8 1.7 3 1.7 1.3 4.1 1.3 2.5 0 4-1 1.4-1 1.4-2.5 0-1.6-1.6-2.4t-5-1.8-5.3-1.7-3.6-2.6q-1.5-1.8-1.5-4.6 0-2.4 1.4-4.3 1.4-2 4-3 2.5-1.1 5.8-1.1 5 0 8 2.5 3.1 2.5 3.3 6.8h-6q-.2-2-1.6-3-1.4-1.3-3.9-1.3-2.4 0-3.6 1-1.3.8-1.3 2.3 0 1.2.8 2t2.1 1.2l3.6 1.2q3.2.8 5.2 1.7t3.6 2.6q1.4 1.7 1.5 4.5 0 2.5-1.4 4.4t-3.9 3-5.9 1.2-6.2-1.2-4.3-3.4-1.7-4.8m30-28q0-1.6 1.2-2.8 1-1 2.7-1 1.6 0 2.7 1 1.1 1.2 1.1 2.8t-1 2.7-2.8 1.2-2.7-1.2-1.1-2.7m6.9 7.7V195h-6v-29.2Zm35.6 12V195h-6v-16.3q0-4-2-6-1.9-2.1-5.3-2.1t-5.4 2q-2 2.2-2 6.1V195h-6v-29.2h6v3.4q1.5-1.8 3.8-2.8t5-1q3.4 0 6.1 1.4t4.3 4.2 1.5 6.8m35.2 4.9h-22.3q.2 3.5 2.6 5.6 2.3 2.1 5.7 2.1 4.9 0 6.9-4h6.5q-1.3 4-4.8 6.5-3.5 2.6-8.6 2.6-4.2 0-7.5-1.9t-5.2-5.3-1.9-7.9 1.9-8q1.8-3.3 5.1-5.2 3.3-1.8 7.6-1.8 4.1 0 7.4 1.8 3.2 1.8 5 5t1.8 7.5q0 1.7-.2 3m-6.1-4.9q0-3.3-2.4-5.3-2.3-2-5.8-2-3 0-5.3 2t-2.7 5.3Zm11.6 8.3h6.3q.1 1.8 1.7 3 1.6 1.3 4 1.3 2.6 0 4-1t1.4-2.5-1.5-2.4q-1.6-.8-5-1.8-3.3-.9-5.3-1.7-2.1-.9-3.6-2.6t-1.5-4.6q0-2.4 1.4-4.3 1.3-2 4-3 2.5-1.1 5.8-1.1 5 0 8 2.5t3.3 6.8h-6q-.2-2-1.6-3-1.5-1.3-3.9-1.3t-3.7 1-1.2 2.3q0 1.2.8 2t2 1.2l3.7 1.2q3.2.8 5.2 1.7t3.5 2.6 1.6 4.5q0 2.5-1.4 4.4t-3.9 3-6 1.2-6-1.2-4.4-3.4-1.7-4.8m29.3 0h6.2q.2 1.8 1.8 3 1.6 1.3 4 1.3 2.6 0 4-1t1.4-2.5-1.6-2.4q-1.5-.8-5-1.8-3.2-.9-5.3-1.7-2-.9-3.6-2.6-1.5-1.8-1.5-4.6 0-2.4 1.4-4.3 1.4-2 4-3 2.5-1.1 5.9-1.1 5 0 8 2.5t3.3 6.8h-6q-.2-2-1.7-3-1.4-1.3-3.8-1.3t-3.7 1q-1.3.8-1.3 2.3 0 1.2.9 2t2 1.2l3.6 1.2q3.2.8 5.3 1.7t3.5 2.6 1.5 4.5q0 2.5-1.4 4.4t-3.9 3-5.9 1.2-6.1-1.2-4.4-3.4-1.6-4.8m29.4 5.4q0-1.6 1-2.7 1.2-1.1 2.8-1.1t2.7 1 1.1 2.8-1 2.8q-1.2 1.1-2.8 1.1t-2.7-1.1-1.1-2.8"/></svg>
